# xmcd
#
# Track frame offsets:
#	150
#	18225
#	35625
#	50850
#	68775
#	87750
#	98025
#	114450
#	131700
#	149625
#	168600
#	184875
#	200400
#	220125
#	228825
#	250800
#
# Disc length: 3561 seconds
#
# Revision: 2
# Processed by: cddbd v1.5.2PL0 Copyright (c) Steve Scherf et al.
# Submitted via: audiograbber 1.83.01
#
DISCID=ea0de710
DTITLE=Various Artist - Love Dreams [CD1)
DYEAR=1988
DGENRE=Pop
TTITLE0=Den Harrow - Born To Love
TTITLE1=Oliver Simon - I Need You
TTITLE2=Chris Norman - Broken Hereos 
TTITLE3=Carmen Edward´s - Hungrey Eyes
TTITLE4=Freddy Quinn - The Singer
TTITLE5=Pat Boone - Love Letters In the Sand
TTITLE6=Stefan Pintev - Starlight Melody
TTITLE7=Ria Hamilton - Take My Heart
TTITLE8=Roger Whittaker - The Last Farewell
TTITLE9=Mandy Winter - Julian
TTITLE10=Graham Bonney - Cathy´s Clown
TTITLE11=Parrish and Toppano - Cello
TTITLE12=Georgie Fame and The Blue Flames - Some Day
TTITLE13=Box Tops - The Letter
TTITLE14=Mortimers - Stay On These Roads
TTITLE15=Kuno Alexander - Dream - Concerto
EXTD=
EXTT0=
EXTT1=
EXTT2=
EXTT3=
EXTT4=
EXTT5=
EXTT6=
EXTT7=
EXTT8=
EXTT9=
EXTT10=
EXTT11=
EXTT12=
EXTT13=
EXTT14=
EXTT15=
PLAYORDER=
